<?xml version="1.0" encoding="utf-8"?>
<!-- Generator: Adobe Illustrator 16.0.0, SVG Export Plug-In . SVG Version: 6.00 Build 0)  -->
<!DOCTYPE svg PUBLIC "-//W3C//DTD SVG 1.1//EN" "http://www.w3.org/Graphics/SVG/1.1/DTD/svg11.dtd">
<svg version="1.1" id="Layer_1" xmlns="http://www.w3.org/2000/svg" xmlns:xlink="http://www.w3.org/1999/xlink" x="0px" y="0px"
	 width="329px" height="329px" viewBox="0 0 329 329" enable-background="new 0 0 329 329" xml:space="preserve">
<path fill="#D31111" d="M194.642,164.77l128.105-128.11c8.337-8.333,8.337-21.806,0-30.139c-8.333-8.333-21.806-8.333-30.14,0
	L164.498,134.63L36.392,6.52c-8.337-8.333-21.806-8.333-30.139,0c-8.337,8.333-8.337,21.806,0,30.139l128.106,128.11L6.253,292.879
	c-8.337,8.334-8.337,21.807,0,30.14c4.153,4.157,9.613,6.245,15.069,6.245s10.913-2.088,15.07-6.245l128.106-128.11l128.109,128.11
	c4.157,4.157,9.613,6.245,15.07,6.245s10.913-2.088,15.069-6.245c8.337-8.333,8.337-21.806,0-30.14L194.642,164.77z"/>
</svg>
