<?xml version="1.0" encoding="utf-8"?>
<!-- Generator: Adobe Illustrator 16.0.0, SVG Export Plug-In . SVG Version: 6.00 Build 0)  -->
<!DOCTYPE svg PUBLIC "-//W3C//DTD SVG 1.1//EN" "http://www.w3.org/Graphics/SVG/1.1/DTD/svg11.dtd">
<svg version="1.1" id="Layer_1" xmlns="http://www.w3.org/2000/svg" xmlns:xlink="http://www.w3.org/1999/xlink" x="0px" y="0px"
	 width="243px" height="236.5px" viewBox="76 3.833 243 236.5" enable-background="new 76 3.833 243 236.5" xml:space="preserve">
<rect x="-89" y="-90.167" display="none" fill="#EABBBB" width="485" height="344"/>
<circle fill="none" stroke="#FFFFFF" stroke-width="3" stroke-miterlimit="10" stroke-dasharray="12.007,12.007" cx="198.08" cy="117.729" r="102.305"/>
<g>
	<path fill="#EA944B" d="M213.189,210.674c-0.77,0.026-6.073-0.304-7.988-0.233c-2.666,0.1-8.8,5.83-9.568,6.239
		c-0.771,0.412-0.93,1.491-0.516,2.195c0.416,0.703,2.402,0.187,2.402,0.187l2.143,1.939l-7.742,7.64l12.188,8.334l6.624-4.898
		c0,0,10.346-8.572,10.563-10.357c0.085-0.7,2.25,0.228,2.42-1.503c0.182-1.874-3.839-5.772-3.857-11.453
		c0.003-0.002-4.109,1.826-6.668,1.908V210.674z"/>
	<g>
		<path fill="#FBD8B9" d="M202.225,212.8c0,0-2.713-1.903-6.38-2.191c-2.409-0.188-9.841-1.797-9.841-1.797
			s-2.897,1.797-3.027,6.722c-0.04,1.595-3.427,4.979-0.888,5.722c3.405,0.992,6.451,7.3,9.786,9.089
			c2.701,1.449,8.512,3.016,8.512,3.016l9.439-9.997l-9.981-6.301l2.376-4.265L202.225,212.8z"/>
		<path fill="#FBD8B9" d="M215.785,225.888l-14.972-9.498c-0.631-0.368-1.495,0.547-1.862,1.175l-0.548,0.937
			c-0.367,0.625-0.156,1.437,0.473,1.804l15.024,8.793c0.632,0.37,2.263,1.182,3.173-0.311c0.918-1.509-0.661-2.531-1.288-2.897
			V225.888z M213.448,229.437l-15.026-8.995c-0.629-0.371-1.436-0.157-1.804,0.47l-0.548,0.937c-0.365,0.631-0.153,1.44,0.474,1.807
			l15.027,8.789c0.631,0.371,2.26,1.18,3.169-0.313c0.917-1.508-0.659-2.327-1.29-2.696L213.448,229.437z M210.217,232.243
			l-15.027-8.996c-0.628-0.368-1.438-0.156-1.805,0.477l-0.548,0.938c-0.369,0.628-0.157,1.438,0.473,1.805l15.027,8.794
			c0.63,0.367,2.258,1.182,3.168-0.313c0.916-1.506-0.66-2.328-1.288-2.694V232.243z M206.534,234.775l-13.679-8.18
			c-0.628-0.373-1.437-0.157-1.805,0.471l-0.55,0.935c-0.367,0.631,0.743,1.983,1.37,2.347l12.777,7.439
			c0.63,0.368,2.263,1.178,3.168-0.314c0.917-1.508-0.66-2.328-1.287-2.697H206.534z"/>
	</g>
	<path fill="#EA944B" d="M204.184,211.708c-0.44-0.579-1.287-0.46-1.868-0.02l-8.268,6.642c-0.581,0.443-1.953,1.639-0.92,3.051
		c1.044,1.425,3.294,0.412,3.873-0.028l7.365-4.12c0.584-0.443,0.912-4.081,0.473-4.659l-0.651-0.865H204.184z"/>
	<path fill="#D2D3D3" d="M221.44,206.275l4.618,16.9l-4.272,1.166l-4.618-16.901L221.44,206.275z"/>
	<path fill="#F2F2F2" d="M219.44,215.869l-2.298-8.405l4.275-1.169l2.294,8.406"/>
	<path fill="#221F1F" d="M225.44,224.101l14.084-3.848v-0.016c0-6.728-1.811-13.031-4.963-18.457l-14.167,3.87L225.44,224.101
		L225.44,224.101z"/>
	<circle fill="#F2F2F2" cx="228.095" cy="220.906" r="0.824"/>
	<path fill="#F2F2F2" d="M230.811,219.343c0.452,0,0.821,0.366,0.821,0.821s-0.369,0.821-0.821,0.821
		c-0.454,0-0.824-0.366-0.824-0.821S230.354,219.343,230.811,219.343z M233.523,218.597c0.454,0,0.823,0.369,0.823,0.824
		c0,0.454-0.369,0.82-0.823,0.82c-0.451,0-0.821-0.366-0.821-0.82C232.702,218.965,233.07,218.596,233.523,218.597L233.523,218.597z
		"/>
	<path fill="#424143" d="M222.918,214.875l15.35-4.196c-0.848-3.153-2.103-6.138-3.706-8.898l-14.167,3.872l2.523,9.225V214.875z"/>
	<path fill="#221F1F" d="M183.772,206.244l4.273,1.168l-4.614,16.901l-4.276-1.166L183.772,206.244z"/>
	<path fill="#424143" d="M183.794,206.308l4.272,1.169l-2.303,8.404l-4.271-1.171L183.794,206.308z"/>
	<path fill="#A5732A" d="M184.825,205.654l-13.989-3.852c-3.144,5.424-4.952,11.717-4.952,18.436c0,0.013,0.001,0.028,0.001,0.041
		l13.894,3.822L184.825,205.654z"/>
	<circle fill="#221F1F" cx="177.124" cy="220.906" r="0.824"/>
	<path fill="#221F1F" d="M174.409,219.343c0.455,0,0.823,0.366,0.823,0.821s-0.367,0.821-0.822,0.821
		c-0.451,0-0.821-0.366-0.821-0.821S173.959,219.343,174.409,219.343L174.409,219.343z"/>
	<circle fill="#221F1F" cx="171.696" cy="219.419" r="0.823"/>
	<path fill="#C3872B" d="M184.825,205.654l-13.974-3.877c-1.602,2.756-2.857,5.739-3.705,8.893l15.155,4.207l2.526-9.223H184.825z"
		/>
	<path fill="#EA944B" d="M205.202,231.507c-1.399-1.081-2.593,0.371-3.028,0.955l-1.732,2.757c-0.448,0.715-0.942,1.926,0.207,2.82
		c1.399,1.08,2.591-0.37,3.028-0.956l1.662-2.644c0.464-0.693,1.081-1.993-0.133-2.933H205.202z M200.932,229.863
		c-1.399-1.081-2.59,0.372-3.026,0.956l-1.732,2.758c-0.449,0.715-0.943,1.927,0.206,2.818c1.397,1.083,2.589-0.366,3.025-0.954
		l1.657-2.643c0.466-0.697,1.082-1.99-0.132-2.934L200.932,229.863z M196.938,227.908c-1.398-1.082-2.591,0.369-3.025,0.954
		l-1.497,2.287c-0.449,0.717-0.945,1.929,0.205,2.817c1.4,1.084,2.591-0.369,3.029-0.954l1.426-2.173
		c0.462-0.697,1.078-1.993-0.135-2.932H196.938z M192.031,226.368c-1.398-1.084-2.59,0.371-3.026,0.954l-0.559,0.877
		c-0.45,0.717-0.944,1.929,0.207,2.82c1.398,1.081,2.59-0.372,3.026-0.956l0.484-0.764
		C192.628,228.601,193.245,227.306,192.031,226.368L192.031,226.368z"/>
</g>
<g>
	<path fill="#63B1D3" d="M110.689,87.476c0,0,1.058,8.714,0.792,9.312c0,0,3.523,0.513,3.611-2.221v-4.699
		c0,0-0.141-1.649-2.202-2.393h-1.849"/>
	<path fill="#0C333F" d="M86.292,126.097c-0.113-0.422-0.264-0.832-0.402-1.239c-0.168-0.396-0.331-0.789-0.52-1.153
		c-0.182-0.368-0.383-0.713-0.593-1.027c-0.191-0.323-0.424-0.601-0.622-0.861c-0.421-0.51-0.822-0.891-1.121-1.13
		c-0.304-0.24-0.497-0.348-0.497-0.348s0.131,0.177,0.332,0.487c0.099,0.157,0.216,0.349,0.343,0.572
		c0.134,0.217,0.257,0.481,0.411,0.751c0.131,0.284,0.288,0.58,0.427,0.906c0.153,0.321,0.281,0.672,0.428,1.028
		c0.151,0.354,0.253,0.74,0.399,1.115c0.104,0.391,0.245,0.775,0.345,1.175c0.09,0.386,0.21,0.764,0.286,1.146h1.091l-0.024-0.161
		c-0.056-0.424-0.185-0.843-0.279-1.266L86.292,126.097z M113.29,125.694c0.145-0.376,0.247-0.764,0.397-1.117
		c0.148-0.354,0.275-0.708,0.428-1.028c0.14-0.326,0.297-0.622,0.428-0.906c0.153-0.272,0.276-0.535,0.41-0.752
		c0.126-0.224,0.244-0.415,0.342-0.573c0.2-0.313,0.33-0.488,0.33-0.488s-0.19,0.106-0.496,0.348
		c-0.3,0.241-0.701,0.621-1.121,1.129c-0.197,0.261-0.431,0.538-0.622,0.863c-0.21,0.313-0.41,0.656-0.592,1.024
		c-0.189,0.365-0.352,0.758-0.521,1.154c-0.137,0.406-0.29,0.817-0.4,1.239c-0.07,0.318-0.162,0.634-0.226,0.95h1.126
		c0.059-0.222,0.122-0.446,0.177-0.671c0.1-0.4,0.239-0.786,0.344-1.177L113.29,125.694z"/>
	<path fill="#A59E98" d="M85.308,92.615c0,0-0.468,10.591-3.133,14.383c0,0,14.569,8.705,34.467-0.259c0,0-3.731-5.601-2.576-13.014
		L85.308,92.615L85.308,92.615z"/>
	<path fill="#FFFFFF" d="M93.891,105.438h10.427v11.967H93.891V105.438z"/>
	<path fill="#B1AFB0" d="M93.875,111.729l10.749-5.842l-10.752-2.393"/>
	<path fill="#DFE5E2" d="M85.88,90.737c0,8.99,5.79,16.296,12.992,16.497v-29.75C91.794,77.707,85.88,81.872,85.88,90.737
		L85.88,90.737z"/>
	<path fill="#FFFFFF" d="M99.476,77.473c-0.201,0-0.403,0.005-0.604,0.011v29.75c0.101,0.003,0.201,0.01,0.302,0.01
		c7.344,0,13.295-7.39,13.295-16.506c0-9.117-5.649-13.266-12.992-13.266L99.476,77.473z"/>
	<path fill="#A59E98" d="M104.621,82.565c0,0,1.373,6.324,8.578,7.655c0,0,3.087-16.976-12.695-16.976
		c-15.781,0-16.468,9.987-16.468,16.978c0,0,11.667,0.998,20.587-7.656L104.621,82.565z"/>
	<path fill="#DFE5E2" d="M86.781,91.618c0.187,1.877-0.378,3.468-1.262,3.552s-1.751-1.372-1.938-3.25
		c-0.187-1.88,0.379-3.47,1.263-3.552c0.883-0.084,1.75,1.371,1.937,3.249V91.618z"/>
	<path fill="#4196CC" d="M108.313,119.841l-2.378,0.166l1.868,1.483l-2.932,6.034h6.775c0.063-0.317,0.154-0.635,0.226-0.955
		c0.111-0.419,0.263-0.832,0.4-1.237c0.169-0.397,0.332-0.789,0.521-1.153c0.181-0.369,0.383-0.712,0.591-1.026
		c0.192-0.324,0.424-0.602,0.622-0.863c0.421-0.509,0.819-0.89,1.121-1.131c0.304-0.238,0.495-0.347,0.495-0.347
		s-0.13,0.176-0.33,0.489c-0.098,0.158-0.216,0.348-0.344,0.572c-0.133,0.217-0.256,0.48-0.411,0.749
		c-0.131,0.285-0.287,0.581-0.427,0.908c-0.151,0.318-0.28,0.672-0.427,1.026c-0.152,0.352-0.253,0.741-0.398,1.116
		c-0.106,0.391-0.246,0.775-0.345,1.175c-0.053,0.226-0.117,0.449-0.176,0.672H120c-1.04-3.847-4.182-12.237-12.181-14.604
		l0.83,0.331l-0.339,6.592L108.313,119.841z M85.218,126.376c-0.099-0.398-0.239-0.784-0.344-1.175
		c-0.146-0.374-0.248-0.763-0.398-1.116c-0.148-0.355-0.275-0.708-0.427-1.027c-0.14-0.327-0.296-0.624-0.427-0.908
		c-0.154-0.27-0.277-0.533-0.409-0.75c-0.128-0.223-0.246-0.414-0.343-0.573c-0.2-0.313-0.331-0.488-0.331-0.488
		s0.191,0.107,0.496,0.348c0.3,0.239,0.7,0.62,1.121,1.129c0.198,0.262,0.429,0.539,0.621,0.862c0.21,0.314,0.41,0.659,0.593,1.027
		c0.189,0.364,0.351,0.757,0.52,1.152c0.137,0.408,0.29,0.818,0.403,1.24c0.094,0.426,0.224,0.844,0.278,1.268l0.025,0.16h6.836
		l-3.634-6.032l2.038-1.646l-2.719-0.165l0.339-5.768l1.712-0.884c-3.06,0.805-11.115,3.909-13.007,14.499h7.342
		c-0.077-0.382-0.195-0.76-0.288-1.146L85.218,126.376z"/>
	<path fill="#ABD9E2" d="M97.133,113.466l-4.572-0.667l-0.064,0.062l-0.292,0.277l4.273,12.199l0.766,2.184h1.862v-13.71"/>
	<path fill="#C9E9EE" d="M105.576,112.168l-4.266,2.031l-2.205-0.387v13.713h2.416l0.595-2.186l3.248-11.896l0.328-1.102"/>
	<path fill="#0C333F" d="M108.654,113.25l-0.831-0.331l-2.058-0.822l-0.072,0.241l-0.328,1.103l-3.249,10.953l-0.928,3.128h3.683
		l2.932-6.032l-1.868-1.483l2.378-0.165 M96.475,124.989l-4.272-11.851l-0.117-0.326l-0.08-0.222l-0.835,0.431l-1.713,0.885
		l-0.339,5.768l2.717,0.165l-2.038,1.646l3.633,6.032h3.957"/>
	<path fill="#8EC3D7" d="M93.875,111.109l5.266,2.801l-4.556,5.87l-2.579-7.188 M104.406,110.944l1.359,1.153l-2.077,7.018
		l-4.548-5.205"/>
	<path fill="#0C333F" d="M84.712,88.073c0,0,2.29-11.192,13.297-11.192c11.007,0,13.914,9.74,13.914,9.74l-1.673,0.17
		c0,0-2.73-7.347-11.933-7.347c-9.202,0-12.46,8.628-12.46,8.628H84.712L84.712,88.073z"/>
	<path fill="#0C333F" d="M100.964,101.782c0,0,7.787-0.591,10.958-4.193c0,0,0.788-0.543,1.35,0.542
		c0.558,1.085-7.783,4.737-12.308,4.934c0,0-0.204,0.79-2.441,0.839c-2.238,0.05-2.746-0.689-2.746-0.689s-1.068-1.185,0.203-2.022
		c1.271-0.838,2.337-0.511,2.337-0.511s2.19,0.116,2.647,1.102V101.782z"/>
</g>
<g>
	<path fill="#D82844" d="M294.729,167.503c-5.441-6.531-11.609,0-11.609,0v21.045C288.56,184.737,300.171,174.034,294.729,167.503
		L294.729,167.503z"/>
	<path fill="#F54262" d="M271.508,167.503c5.442-6.531,11.611,0,11.611,0v21.045C277.678,184.737,266.068,174.034,271.508,167.503
		L271.508,167.503z"/>
	<path fill="#FFFFFF" d="M284.357,185.529l-2.763-14.399l-3.456,6.433h-11.21v-1.088h10.56l4.6-8.56l2.69,14.04l2.478-5.478h12.051
		v1.088h-11.35"/>
</g>
<g>
	<path fill="#E43F46" d="M297.09,81.17l-17.414,7.52v18.647c0,0,1.029,12.989,17.414,20.198
		c16.379-7.211,17.408-20.196,17.408-20.196V88.69L297.09,81.17L297.09,81.17z"/>
	<path fill="#FFFFFF" d="M297.09,85.907l-13.854,5.98v14.841c0,0,0.814,10.331,13.854,16.069
		c13.035-5.738,13.852-16.069,13.852-16.069V91.89L297.09,85.907L297.09,85.907z"/>
	<path opacity="0.1" fill="#231F20" enable-background="new    " d="M314.5,107.337V88.69l-17.41-7.52v46.366
		c16.381-7.211,17.41-20.196,17.41-20.196V107.337z"/>
	<path fill="#37BB9D" d="M297.017,108.589l10.935-9.35l-1.645-1.918l-9.059,7.747l-3.762-4.234l-1.889,1.678l5.396,6.074
		l0.014,0.015"/>
</g>
<g>
	<path fill="#F29D1F" d="M246.361,16.408h28.061c1.061,0,1.924,0.934,1.924,2.077v36.641c0,1.145-0.863,2.082-1.925,2.082h-28.058
		c-1.057,0-1.926-0.939-1.926-2.082V18.485c0-1.145,0.871-2.079,1.926-2.079L246.361,16.408z"/>
	<path fill="#E6E6E5" d="M245.99,18.22h28.808v37.172h-28.81L245.99,18.22z"/>
	<path fill="#D3D3D3" d="M254.41,12.326h11.967v5.894h-0.667v-5.14h-10.673v5.14h-0.627"/>
	<path fill="#D84948" d="M253.463,15.84h13.857c0.291,0,0.523,0.256,0.523,0.568v2.644c0,0.313-0.234,0.564-0.521,0.564h-13.857
		c-0.285,0-0.523-0.252-0.523-0.564v-2.644c-0.002-0.313,0.236-0.57,0.522-0.57L253.463,15.84z"/>
	<path opacity="0.1" fill="#231F20" enable-background="new    " d="M260.057,16.408h14.364c1.062,0,1.927,0.934,1.927,2.077v36.641
		c0,1.145-0.865,2.082-1.926,2.082h-14.363V16.407L260.057,16.408z"/>
	<g>
		<path fill="#4E4E4E" d="M249.561,25.164h20.992v0.68h-20.992V25.164z"/>
		<path fill="#34679A" d="M249.561,26.787h20.992v0.682h-20.992V26.787z"/>
		<path fill="#4E4E4E" d="M249.561,28.3h20.992v0.68h-20.992V28.3z M249.561,29.923h20.992v0.68h-20.992V29.923z"/>
		<path fill="#34679A" d="M249.561,31.51h20.992v0.68h-20.992V31.51z"/>
		<path fill="#4E4E4E" d="M249.561,33.02h20.992v0.683h-20.992V33.02z M249.561,34.646h20.992v0.678h-20.992V34.646z"/>
	</g>
	<g>
		<path fill="#4E4E4E" d="M249.113,52.441h20.994v0.561h-20.994V52.441z"/>
		<path fill="#F2673A" d="M250.993,46.712c0.302,0,0.553,0.223,0.553,0.49v5.094h-1.104v-5.092c0-0.27,0.246-0.49,0.551-0.49
			L250.993,46.712z"/>
		<path fill="#0358A3" d="M253.128,46.107c0.3,0,0.552,0.248,0.552,0.545v5.645h-1.103v-5.645
			C252.577,46.355,252.823,46.107,253.128,46.107L253.128,46.107z"/>
		<path fill="#F2673A" d="M255.262,46.734c0.303,0,0.551,0.225,0.551,0.492v5.111h-1.101v-5.111
			C254.712,46.958,254.957,46.734,255.262,46.734z"/>
		<path fill="#0358A3" d="M257.57,43.835c0.303,0,0.553,0.336,0.553,0.746v7.76h-1.104v-7.76c0-0.408,0.246-0.746,0.549-0.746
			H257.57z"/>
		<path fill="#F2673A" d="M259.811,46.982c0.305,0,0.549,0.213,0.549,0.475v4.883h-1.102v-4.885c0-0.26,0.25-0.475,0.553-0.475
			V46.982z"/>
		<path fill="#0358A3" d="M262.082,49.136h0.004c0.303,0,0.547,0.127,0.547,0.281v2.92h-1.1v-2.92
			C261.533,49.263,261.781,49.136,262.082,49.136L262.082,49.136z M264.427,43.863c0.306,0,0.55,0.336,0.55,0.746v7.729h-1.098
			v-7.73c0-0.41,0.245-0.746,0.547-0.746L264.427,43.863z"/>
		<path fill="#4EBD94" d="M266.457,44.425c0.303,0,0.553,0.314,0.553,0.695v7.221h-1.104v-7.221c0-0.379,0.25-0.693,0.55-0.693
			L266.457,44.425z"/>
		<path fill="#F2673A" d="M268.311,42.462c0.307,0,0.553,0.391,0.553,0.867v9.01h-1.104v-9.01c0-0.479,0.25-0.867,0.55-0.867
			H268.311z M271.417,44.269h1.96v1.748h-1.96V44.269z"/>
		<path fill="#4EBD94" d="M271.417,47.169h1.96v1.746h-1.96V47.169z"/>
		<path fill="#0358A3" d="M271.417,50.132h1.96v1.748h-1.96V50.132z"/>
	</g>
</g>
<g>
	<path fill="#00EFD1" d="M226.505,118.881c-0.009,7.118-2.729,13.966-7.607,19.151c-5.04,5.291-7.408,11.994-6.45,19.15v0.101
		h-27.568c0.938-7.08-1.397-14.204-6.349-19.352c-4.972-5.26-7.67-12.267-7.512-19.506c0.251-14.665,12.703-27.113,27.368-27.365
		c7.435-0.091,14.592,2.802,19.879,8.029C223.551,104.316,226.52,111.447,226.505,118.881z"/>
	<g>
		<path fill="#00ACEA" d="M215.672,160.812h-33.816c-1.949,0-3.528-1.58-3.528-3.528c0-1.947,1.579-3.524,3.528-3.524h33.816
			c1.95,0,3.527,1.577,3.527,3.524C219.199,159.232,217.622,160.812,215.672,160.812z"/>
		<path fill="#00ACEA" d="M209.119,172.554h-20.658c-1.951,0-3.531-1.577-3.531-3.526c0-1.948,1.58-3.528,3.531-3.528h20.658
			c1.951,0,3.532,1.58,3.532,3.528C212.651,170.977,211.07,172.554,209.119,172.554z"/>
		<path fill="#00ACEA" d="M198.085,81.182c-0.939,0.008-1.84-0.362-2.503-1.027c-0.661-0.66-1.03-1.563-1.027-2.5V66.165
			c0-1.951,1.582-3.528,3.53-3.528c1.946,0,3.527,1.577,3.527,3.528v11.491c0.006,0.937-0.366,1.839-1.028,2.5
			C199.921,80.82,199.02,81.19,198.085,81.182z"/>
		<path fill="#00ACEA" d="M226.356,93.533c-0.976,0.01-1.909-0.395-2.57-1.111c-0.644-0.68-0.99-1.588-0.964-2.527
			c0.03-0.938,0.431-1.821,1.115-2.463l8.468-7.964c1.42-1.332,3.655-1.266,4.991,0.153c1.332,1.421,1.266,3.653-0.153,4.99
			l-8.466,7.963C228.117,93.184,227.254,93.528,226.356,93.533z"/>
		<path fill="#00ACEA" d="M170.869,92.472c-0.949-0.003-1.856-0.385-2.52-1.058l-8.115-8.213c-1.362-1.392-1.339-3.626,0.049-4.993
			c1.393-1.36,3.628-1.34,4.992,0.054l8.114,8.213c0.656,0.667,1.022,1.568,1.014,2.506c-0.009,0.936-0.394,1.83-1.063,2.484
			C172.672,92.095,171.79,92.457,170.869,92.472z"/>
	</g>
</g>
<g>
	<path fill="#FEC007" d="M155.305,25.468c0.596,0.7,1.248,1.343,1.92,1.963c2.15,1.979,4.49,3.72,6.857,5.429
		c1.463,1.053,2.951,2.069,4.357,3.199c1.027,0.825,1.82,1.834,2.301,3.07c0.164,0.423,0.244,0.863,0.295,1.32
		c0.092,0.85-0.064,1.652-0.4,2.424c-0.355,0.814-0.887,1.509-1.521,2.121c-0.734,0.705-1.561,1.275-2.529,1.617
		c-0.6,0.211-1.213,0.301-1.854,0.271c-1.369-0.065-2.49-0.687-3.494-1.563c-0.734-0.646-1.291-1.44-1.863-2.224
		c-1.314-1.798-2.564-3.642-3.895-5.433c-1.25-1.686-2.543-3.33-3.965-4.87c-0.51-0.554-1.032-1.097-1.602-1.591
		c-0.041-0.041-0.08-0.084-0.123-0.123c-1.025-0.936-2.129-1.754-3.395-2.336c0.039-0.051,0.078-0.1,0.123-0.146
		c2.121-2.124,4.245-4.246,6.37-6.37c0.043-0.045,0.098-0.083,0.146-0.123c0.063,0.126,0.121,0.253,0.184,0.378
		c0.541,1.108,1.266,2.082,2.084,2.99L155.305,25.468z"/>
	<path fill="#2BAFAF" d="M155.305,25.468c-0.818-0.907-1.545-1.883-2.084-2.986c-0.061-0.125-0.119-0.252-0.182-0.377
		c-0.012-0.032-0.021-0.067-0.033-0.1c-0.396-0.89-0.801-1.774-1.426-2.536c0.443-0.412,0.887-0.83,1.336-1.236
		c0.268-0.24,0.32-0.52,0.297-0.875c-0.076-1.11-0.432-2.168-0.563-3.267c-0.096-0.8-0.146-1.608-0.035-2.408
		c0.188-1.343,0.734-2.534,1.658-3.538c1.363-1.48,3.018-2.484,4.975-2.968c0.928-0.23,1.871-0.315,2.822-0.26
		c0.875,0.05,1.74,0.176,2.584,0.425c0.172,0.05,0.176,0.05,0.039,0.182c-1.686,1.648-3.367,3.3-5.061,4.942
		c-0.146,0.143-0.182,0.28-0.152,0.46c0.115,0.83,0.398,1.6,0.822,2.323c1.002,1.716,2.51,2.73,4.426,3.175
		c0.018,0.005,0.035,0.002,0.053,0.008c0.354,0.104,0.604-0.02,0.865-0.287c1.605-1.636,3.236-3.25,4.857-4.873
		c0.043-0.045,0.09-0.087,0.152-0.146c0.105,0.347,0.188,0.677,0.256,1.01c0.162,0.813,0.264,1.634,0.242,2.464
		c-0.041,1.675-0.467,3.24-1.355,4.67c-0.613,0.988-1.355,1.87-2.266,2.6c-0.881,0.71-1.883,1.147-3,1.333
		c-0.633,0.105-1.271,0.104-1.898,0.053c-0.879-0.074-1.738-0.284-2.596-0.498c-0.479-0.12-0.959-0.244-1.455-0.266
		c-0.313-0.016-0.561,0.078-0.777,0.313c-0.824,0.893-1.666,1.778-2.504,2.664L155.305,25.468z M146.4,28.742
		c1.266,0.582,2.365,1.402,3.393,2.336c0.043,0.039,0.082,0.082,0.123,0.123c-1.021,1.082-2.043,2.164-3.066,3.246l-3.955,4.185
		c-2.102,2.224-4.203,4.442-6.303,6.666c-0.785,0.834-1.74,1.349-2.873,1.491c-1.854,0.236-3.623-0.67-4.324-2.483
		c-0.439-1.14-0.375-2.282,0.09-3.405c0.197-0.484,0.477-0.92,0.818-1.313c0.105-0.12,0.258-0.177,0.371-0.285
		c0.664-0.623,1.34-1.233,1.998-1.86c3.354-3.189,6.699-6.388,10.049-9.58c0.283-0.27,0.568-0.535,0.854-0.806
		C144.376,27.844,145.382,28.303,146.4,28.742z M133.753,40.422c-0.99-0.006-1.77,0.771-1.729,1.814
		c0.033,0.91,0.785,1.689,1.768,1.685c0.939-0.011,1.723-0.802,1.727-1.761C135.521,41.227,134.693,40.416,133.753,40.422
		L133.753,40.422z"/>
	<path fill="#AFBDC4" d="M144.875,23.764c-0.225-0.222-8.523-8.456-9.07-8.976c-0.238-0.23-0.537-0.385-0.811-0.573
		c-1.143-0.773-2.289-1.544-3.436-2.316c-0.072-0.05-0.131-0.104-0.168-0.19c-0.744-1.722-1.492-3.44-2.244-5.16
		c-0.039-0.086-0.02-0.134,0.041-0.195c0.49-0.486,0.979-0.973,1.461-1.46c0.064-0.064,0.109-0.077,0.195-0.04
		c1.719,0.752,3.438,1.5,5.16,2.245c0.08,0.034,0.133,0.084,0.18,0.153l2.73,4.044c0.068,0.106,0.15,0.205,0.244,0.295
		c0.803,0.798,9.031,8.972,9.096,8.985C147.621,21.279,144.898,23.751,144.875,23.764L144.875,23.764z"/>
	<path fill="#FE9800" d="M149.24,19.184c0.809-0.585,1.53-0.53,2.227,0.177c0.037,0.037,0.076,0.072,0.113,0.107
		c0.625,0.762,1.027,1.646,1.426,2.537c0.014,0.032,0.02,0.065,0.033,0.1c-0.051,0.04-6.602,6.59-6.641,6.637
		c-1.018-0.438-2.02-0.896-2.83-1.688c-0.176-0.234-0.371-0.457-0.426-0.762c-0.045-0.525,0.146-0.968,0.457-1.38
		C143.896,24.513,148.777,19.517,149.24,19.184L149.24,19.184z"/>
</g>
<path display="none" fill-rule="evenodd" clip-rule="evenodd" fill="#FEFEFE" d="M-209-63.167c78.667,0,157.334,0.028,236-0.096
	c3.424-0.006,4.102,0.671,4.096,4.096c-0.125,77.333-0.125,154.667,0,232c0.006,3.424-0.672,4.102-4.096,4.096
	c-77.333-0.125-154.667-0.125-232,0c-3.424,0.006-4.102-0.672-4.096-4.096C-208.972,94.167-209,15.5-209-63.167z"/>
<g>
	<path fill-rule="evenodd" clip-rule="evenodd" fill="#239F93" d="M95.99,178.816c0-6.049-0.002-12.098,0.001-18.146
		c0.001-1.899,0.541-2.444,2.404-2.447c2.564-0.002,5.128-0.032,7.691,0.017c0.773,0.016,1.121-0.248,1.132-0.986
		c0.015-0.992,0.467-1.573,1.483-1.694c0.737-0.087,0.933-0.718,1.105-1.28c0.276-0.899,0.788-1.517,1.76-1.518
		c0.998-0.001,1.455,0.683,1.719,1.563c0.203,0.678,0.523,1.207,1.373,1.29c0.862,0.085,1.207,0.796,1.218,1.556
		c0.015,0.953,0.484,1.085,1.297,1.068c2.443-0.043,4.887-0.023,7.33-0.012c1.554,0.007,2.18,0.633,2.194,2.197
		c0.016,1.883,0.026,3.766-0.01,5.647c-0.013,0.626,0.203,1.009,0.695,1.398c7.875,6.226,7.917,17.789,0.081,24.058
		c-0.562,0.449-0.801,0.889-0.777,1.603c0.049,1.479,0.036,2.964,0.008,4.444c-0.025,1.424-0.653,2.04-2.083,2.041
		c-8.813,0.008-17.625,0.008-26.439-0.001c-1.634-0.001-2.181-0.584-2.182-2.291C95.988,191.153,95.99,184.985,95.99,178.816z"/>
	<path fill-rule="evenodd" clip-rule="evenodd" fill="#FEFEFE" d="M105.072,179.568c-0.02-7.186,5.674-12.955,12.813-12.985
		c7.284-0.032,13.123,5.741,13.12,12.97c-0.003,7.08-5.843,12.939-12.924,12.969C110.9,192.549,105.092,186.765,105.072,179.568z"/>
	<path fill-rule="evenodd" clip-rule="evenodd" fill="#FEFEFE" d="M101.769,160.782c-0.144,0.297-0.195,0.398-0.244,0.5
		c-0.595,1.268-0.592,1.271,0.806,1.271c5.969,0,11.938-0.001,17.907-0.001c1.825,0,1.825-0.001,1.208-1.682
		c2.639-0.255,2.639-0.255,2.639,2.257c0,0.721,0,1.439,0,2.3c-2.163-0.762-4.278-1.234-6.499-1.199
		c-7.636,0.12-14.157,6.269-14.829,14.029c-0.67,7.758,4.834,14.967,12.428,16.288c2.698,0.471,5.348,0.328,7.925-0.613
		c0.721-0.264,0.972-0.205,0.983,0.646c0.031,2.425,0.064,2.427-2.37,2.425c-7.332-0.006-14.662-0.034-21.993,0.005
		c-0.996,0.006-1.179-0.319-1.176-1.227c0.033-11.218,0.046-22.434,0.009-33.651c-0.004-1.103,0.287-1.514,1.387-1.361
		C100.498,160.844,101.065,160.782,101.769,160.782z"/>
	<path fill-rule="evenodd" clip-rule="evenodd" fill="#EEF8F7" d="M112.356,154.623c-0.032,0.547-0.327,0.857-0.81,0.883
		c-0.519,0.026-0.808-0.377-0.829-0.821c-0.021-0.47,0.281-0.815,0.807-0.82C112.042,153.862,112.307,154.152,112.356,154.623z"/>
	<path fill-rule="evenodd" clip-rule="evenodd" fill="#239F93" d="M127.314,175.792c-0.189,0.212-0.333,0.393-0.496,0.557
		c-3.505,3.507-7.021,7.001-10.507,10.527c-0.469,0.475-0.717,0.397-1.135-0.03c-1.733-1.771-3.485-3.526-5.263-5.253
		c-0.453-0.442-0.431-0.687,0.001-1.14c1.995-2.099,1.979-2.112,3.982-0.098c1.861,1.87,1.86,1.869,3.736-0.009
		c2.176-2.179,4.366-4.343,6.521-6.542c0.458-0.467,0.764-0.575,1.226-0.029c0.463,0.548,1.009,1.025,1.515,1.536
		C127.031,175.45,127.151,175.602,127.314,175.792z"/>
</g>
</svg>
