<svg xmlns="http://www.w3.org/2000/svg" width="1170.281" height="595.28" viewBox="0 0 1170.281 595.28">
  <path fill="none" stroke="#FFF" stroke-width="3" stroke-miterlimit="10" stroke-dasharray="5" d="M769.9 460.464c-39.143-.12-91.176-22.192-101.62-64.574-4.214-17.104-.468-35.43 13.088-47.912 17.13-15.775 35.94-1.36 31.312 20.657-7.603 36.168-51.777 62.952-85.352 63.33-19.405.22-37.61-9.086-44.586-28.1-11.132-30.345 8.497-49.837 23.738-73.902 18.95-29.92 65.475-84.67 40.82-121.676-17.307-25.973-59.86-24.434-85.236-13.785-29.836 12.522-53.833 38.654-67.307 67.707-20.024 43.17-11.396 94.35-50.15 129.64-16.714 15.22-36.77 15.59-53.987.67-15.666-13.57-15.146-33.17-16.416-52.09-1.714-25.54-1.71-51.29-.285-76.84 1.36-24.52 18.33-47.56 44.51-49.4 6.79-.48 14.38 3 16.33 9.53 1.47 4.92-.61 10.35-4.03 14.19-24.92 27.93-57.48 17.13-78.84-8.77-19.23-23.32-31.05-54.68-24.4-84.95 2.14-9.76 6.52-24.46-5.68-30.03-8.97-4.09-19.6 3.55-24.62 10.48-11.29 15.57-24.41 43.54-45.99 20.28-5.48-5.91-8.74-13.5-11.62-21.03-3.41-8.91-6.76-18.92-12.48-26.64"/>
  <path fill="#D5E6DB" d="M240.804 158.154l20.248-56.013L64.296 40.23"/>
  <path fill="#6F9AAC" d="M67.014 41.51l173.79 116.644-25.15-33.864"/>
  <path fill="#FFF" d="M64.296 40.225l151.358 84.065-50.775 29.424m96.17-51.574l48.29-21.327L64.29 40.225"/>
  <path fill="none" stroke="#FFF" stroke-width="2" stroke-miterlimit="10" stroke-dasharray="5 5" d="M663.82 143.668C746.18 34.113 901.218 11.356 1013.51 91.1"/>
  <circle fill="#FFF" cx="1013.155" cy="90.948" r="7.519"/>
  <path fill="none" stroke="#FFF" stroke-width="2" stroke-miterlimit="10" stroke-dasharray="5 5" d="M699.025 146.3c66.822-88.886 192.38-107.63 283.756-43.585"/>
  <circle fill="#FFF" cx="982.442" cy="102.545" r="7.519"/>
  <path fill="none" stroke="#FFF" stroke-width="2" stroke-miterlimit="10" stroke-dasharray="5 5" d="M666.903 443.227c79.804 111.432 234.272 137.77 348.376 60.646"/>
  <circle fill="#FFF" cx="1014.922" cy="504.016" r="7.52"/>
  <path fill="none" stroke="#FFF" stroke-width="2" stroke-miterlimit="10" stroke-dasharray="5 5" d="M702.16 441.41c64.748 90.41 189.836 112.052 282.67 50.138"/>
  <circle fill="#FFF" cx="984.487" cy="491.709" r="7.52"/>
  <path fill="#F0F1F1" d="M676.412 175.312v76.447h57.15v-63.9l-12.552-12.55"/>
  <path fill="#D0D2D3" d="M733.563 187.863l-12.553-12.55v12.55"/>
  <path fill="#929597" d="M685.508 196.892h39.815v3.465h-39.815z"/>
  <path fill="#BBBDBF" d="M685.508 203.282h39.815v3.467h-39.815zm0 6.395h39.815v3.465h-39.815z"/>
  <path fill="#929597" d="M685.888 186.13h23.624v3.467h-23.624z"/>
  <path fill="#BBBDBF" d="M685.508 216.067h39.815v3.467h-39.815z"/>
  <path fill="#929597" d="M685.508 225.697h39.815v3.464h-39.815z"/>
  <path fill="#BBBDBF" d="M685.508 232.088h39.815v3.466h-39.815zm0 6.392h39.815v3.466h-39.815z"/>
  <path fill="#F45D81" d="M731.66 244.965c-.604-.604-.604-1.584 0-2.188l6.947-6.947c.607-.605 1.586-.605 2.19-.002l5.406 5.406c.604.604.604 1.584 0 2.19l-6.95 6.946c-.604.604-1.583.604-2.188 0l-5.405-5.405z"/>
  <path fill="#F7CF9C" d="M712.314 207.345l-15.767-6.146 6.545 15.36"/>
  <path fill="#221F1F" d="M702.05 203.343l-5.503-2.144 2.283 5.36"/>
  <path fill="#FFDC24" d="M740.888 235.984l-9.224 9.22-28.61-28.623 9.223-9.22z"/>
  <path fill="#F0F1F1" d="M743.312 238.332l-9.22 9.22-2.376-2.374 9.22-9.22z"/>
  <path fill="#E8BF15" d="M736.368 240.526l-4.652 4.652-28.618-28.617 4.652-4.65z"/>
  <circle fill="none" stroke="#FFF" stroke-miterlimit="10" stroke-dasharray="5" cx="871.813" cy="299.014" r="199.222"/>
  <path fill="#FFF" d="M959.262 106.372l-43.718 75.803-87.508.036-43.784-75.76 43.72-75.8 87.505-.04"/>
  <path fill="#00B1E5" d="M952.027 106.375l-40.104 69.535-80.273.034-40.165-69.5 40.107-69.535 80.27-.04"/>
  <path opacity=".2" fill="#141414" d="M915.475 30.608l-43.718.02V182.19l43.787-.017 43.718-75.803"/>
  <path fill="#FFF" d="M794 201.954l-43.717 75.802-87.508.037-43.784-75.765 43.73-75.8 87.51-.04"/>
  <path fill="#931869" d="M786.767 201.957l-40.105 69.535-80.273.034-40.17-69.5 40.1-69.535 80.27-.03"/>
  <path opacity=".2" fill="#141414" d="M750.214 126.19l-43.718.018v151.566l43.787-.018L794 201.954"/>
  <path fill="#FFF" d="M792.495 394.02l-43.718 75.804-87.508.037-43.79-75.76 43.72-75.8 87.5-.04"/>
  <path fill="#E95D0E" d="M785.26 394.025l-40.104 69.536-80.273.04-40.164-69.5 40.1-69.53 80.27-.03"/>
  <path opacity=".2" fill="#141414" d="M748.708 318.258l-43.718.02V469.84l43.787-.018 43.718-75.803"/>
  <path fill="#FFF" d="M958.994 490.446l-43.717 75.803-87.508.03-43.79-75.77 43.72-75.8 87.5-.04"/>
  <path fill="#FEC400" d="M951.76 490.45l-40.104 69.535-80.273.034-40.165-69.5 40.107-69.54 80.27-.04"/>
  <path opacity=".2" fill="#141414" d="M915.207 414.683l-43.717.02v151.564l43.787-.018 43.717-75.81"/>
  <path fill="#FFF" d="M1125.504 394.51l-43.717 75.803-87.508.038-43.79-75.76 43.72-75.8 87.5-.04"/>
  <path fill="#009136" d="M1118.27 394.515l-40.104 69.535-80.273.033-40.164-69.5 40.1-69.535 80.27-.033"/>
  <path opacity=".2" fill="#141414" d="M1081.717 318.747l-43.717.02V470.33l43.787-.017 43.717-75.802"/>
  <path fill="#FFF" d="M1125.706 202.5l-43.717 75.802-87.51.037-43.79-75.77 43.72-75.8 87.5-.04"/>
  <path fill="#014495" d="M1118.472 202.503l-40.104 69.536-80.273.03-40.164-69.5 40.11-69.54 80.27-.04"/>
  <path opacity=".2" fill="#141414" d="M1081.92 126.736l-43.718.02V278.32l43.787-.018 43.71-75.802"/>
  <circle fill="#A6A8AB" cx="871.813" cy="99.054" r="48.079"/>
  <path fill="#F0F1F1" d="M911.866 99.054c0 22.12-17.93 40.052-40.052 40.052-22.123 0-40.052-17.932-40.052-40.052s17.93-40.052 40.052-40.052c22.123 0 40.052 17.933 40.052 40.052z"/>
  <path fill="#D0D2D3" d="M871.814 139.106c-22.123 0-40.052-17.932-40.052-40.052s17.93-40.052 40.052-40.052v-8.026c-26.554 0-48.08 21.526-48.08 48.08s21.526 48.078 48.08 48.078v-8.028z"/>
  <path fill="#FFF" d="M831.763 99.054c0 22.12 17.93 40.052 40.052 40.052V59.002c-22.124 0-40.052 17.933-40.052 40.052z"/>
  <path fill="#6C6E70" d="M838.98 96.898c.513 0 .93.834.93 1.862v.588c0 1.028-.417 1.86-.93 1.86h-3.69c-.515 0-.933-.832-.933-1.86v-.588c0-1.028.418-1.862.932-1.862h3.69zm65.668 4.312c-.514 0-.93-.833-.93-1.86v-.59c0-1.028.416-1.862.93-1.862h3.69c.515 0 .932.834.932 1.862v.59c0 1.027-.417 1.86-.932 1.86h-3.69zm-30.68-34.84c0 .432-.832.78-1.86.78h-.588c-1.028 0-1.86-.35-1.86-.78v-3.09c0-.43.832-.778 1.86-.778h.59c1.026 0 1.858.35 1.858.78v3.09zm-4.31 65.52c0-.515.832-.932 1.86-.932h.59c1.026 0 1.858.417 1.858.93v3.69c0 .515-.832.93-1.86.93h-.587c-1.03 0-1.87-.416-1.87-.93v-3.69z"/>
  <path fill="#403F41" d="M876.66 102.595c.727.728.727 1.905 0 2.632l-.416.417c-.728.726-1.905.726-2.633 0L849.48 81.51c-.73-.73-.73-1.907 0-2.635l.415-.417c.727-.727 1.903-.727 2.63 0l24.14 24.137z"/>
  <path fill="#403F41" d="M870.226 105.644c-.725.726-1.9.726-2.63 0l-.415-.417c-.72-.727-.72-1.904 0-2.633l17.83-17.83c.73-.727 1.91-.727 2.64 0l.42.417c.73.73.73 1.91 0 2.64l-17.83 17.83z"/>
  <path fill="#FFF" d="M931.52 194.93H812.148l-59.684 103.376 59.684 103.378H931.52l59.685-103.378L931.52 194.93zm-3.18 80.51c-.78 3.647-1.366 7.35-2.382 10.928-2.448 8.646-6.385 16.695-10.337 24.728-2.57 5.24-5.06 10.528-7.72 15.73-4.07 7.975-4.37 16.23-2.19 24.748 1.82 7.14 4.68 13.845 8.31 20.24.28.49.53.995.93 1.738h-5.52c-18.71 0-37.42-.02-56.14.038-1.64.006-2.6-.41-3.23-1.968-.64-1.607-1.54-3.112-2.33-4.66-1.01-1.99-1.79-4.03-1.67-6.335.04-.776-.15-1.57-.28-2.35-.59-3.552-2.46-5.89-6.2-6.325-3.81-.443-7.64-.802-11.46-1.222-1.77-.195-3.56-.36-5.32-.69-2.56-.478-4.1-2.218-4.15-4.84-.03-1.83.35-3.662.41-5.498.12-3.14.2-6.285.14-9.425-.01-.834-.41-1.803-.94-2.455-1.04-1.276-1.02-2.438-.19-3.746.19-.287.24-.66.4-1.13-2.24-.192-2.89-1.814-3.35-3.533-.37-1.367-.73-2.756-.89-4.158-.123-1.096-.63-1.58-1.583-2.044-3.21-1.54-6.356-3.23-9.527-4.87v-1.26c3.35-7.64 7.97-14.56 12.373-21.6.35-.55.525-1.4.394-2.03-.363-1.74-.73-3.54-1.47-5.14-1.2-2.58-1.22-5.16-.22-7.67 2.61-6.54 5.327-13.04 8.13-19.5 1.25-2.87 2.82-5.61 4.35-8.63l-8.45 1.7 1.63-3.77h-6.16c.684-.72 1.07-1.17 1.5-1.57 5.7-5.4 12.44-9.17 19.623-12.18 13.572-5.68 27.64-9.32 42.44-9.43 10.82-.08 19.812 4.21 27.21 12.03.533.57 1.346 1.12 2.08 1.19 2.39.24 4.1 1.46 5.57 3.23 3.74 4.5 6.6 9.56 8.85 14.89 2.53 6 4.64 12.17 6.896 18.28.27.73.35 1.52.514 2.28v6.33z"/>
  <path fill="#F7FBFF" d="M843.92 540.728l68.546-7.68-10.76-93.04-68.543 7.68"/>
  <path d="M876.783 516.9l29.455-3.3-.234-2.02-29.455 3.3m.59 5.152l29.45-3.3-.24-2.02-29.46 3.3m.59 5.152l29.45-3.3-.24-2.02-29.46 3.3m.6 5.153l29.45-3.3-.23-2.02-29.46 3.3m.6 5.153l29.45-3.3-.24-2.022-29.4 3.302m.59 5.152l29.45-3.3-.236-2.02-29.454 3.3m-34.96-16.248l29.46-3.3-.23-2.02-29.45 3.3m.6 5.153l29.46-3.3-.23-2.02-29.45 3.3m.6 5.153l29.46-3.3-.23-2.02-29.452 3.3m.6 5.15l29.45-3.3-.23-2.02-29.45 3.302m.593 5.15l29.46-3.3-.235-2.02-29.456 3.3m.595 5.154l29.46-3.3-.23-2.02-29.46 3.3m.593 5.154l29.45-3.302-.234-2.02-29.46 3.3m.595 5.152l29.457-3.3-.23-2.02-29.458 3.3" fill="#8A8387"/>
  <path fill="#EBA8A0" d="M898.875 497.41l5.42-.607-.532-4.615-5.422.607"/>
  <path fill="#83CFEE" d="M899.65 504.127l5.422-.608-.533-4.62-5.43.61"/>
  <path fill="#C8DB57" d="M867.148 500.966l5.422-.608-.534-4.616-5.422.61"/>
  <path fill="#F3BC5A" d="M867.925 507.682l5.422-.61-.534-4.614-5.422.607"/>
  <path fill="#C0C0C0" d="M889.42 497.156l6.374-.715-.217-1.87-6.375.72m1 8.66l6.375-.71-.2-1.73-6.374.72m-31.66-1.56l6.377-.71-.217-1.87-6.376.72m1.003 8.66l6.374-.71-.2-1.73-6.376.71"/>
  <path fill="#8A8387" d="M839.108 483.44l62.486-7.002-.233-2.02-62.48 7.003m.99 8.57l62.49-7-.23-2.02-62.48 7m.99 8.57l62.49-7-.23-2.02-62.48 7"/>
  <path fill="#83CFEE" d="M858.68 474.277l-20.905 2.24-2.784-25.206 20.91-2.23"/>
  <path fill="#EFD4B7" d="M851.504 470.958l-4.29.48-.573-4.97 4.29-.48"/>
  <path fill="#CCAC90" d="M846.936 469.08l4.142-2.92-4.54-.498"/>
  <ellipse transform="rotate(-178 853.9 459.9)" fill="#EFD4B7" cx="853.916" cy="459.912" rx=".741" ry="1.477"/>
  <path fill="#DDBB9D" d="M842.58 460.63c.436 3.79 3.21 6.6 6.227 6.348l-1.445-12.54c-2.946.424-5.214 2.457-4.783 6.193z"/>
  <path fill="#EFD4B7" d="M847.613 454.405c-.085.01-.168.02-.252.033l1.45 12.54c.05-.005.09-.007.13-.01 3.07-.345 5.2-3.737 4.75-7.58-.44-3.84-3-5.325-6.07-4.983z"/>
  <path fill="#31323A" d="M851.154 456.84s-2.397 3.778-7.37 3.72l-.32 1.105-1.714-1.57s-1.112-4.657 3.218-6.463c4.33-1.805 5.584.76 5.584.76s2.296-.15 3.413 4.045c0 0-.996.844-.762 1.762 0-.01-1.616-1.27-2.05-3.36z"/>
  <path fill="#DDBB9D" d="M842.998 460.96c.17.783.01 1.48-.354 1.557-.364.076-.798-.496-.967-1.28-.17-.783-.01-1.48.354-1.556.37-.07.8.5.97 1.28z"/>
  <path fill="none" d="M849.02 470.88l-.62.482-.062.36.13-.292m1.862.07l.23-.602-1.19-.085.68.56"/>
  <path fill="#2C5871" d="M844.403 475.42c-.047-.152-.113-.3-.17-.454-.055-.152-.127-.298-.186-.446-.073-.142-.13-.29-.204-.422-.074-.134-.14-.268-.213-.386-.07-.123-.143-.233-.207-.34-.07-.1-.13-.197-.193-.277l-.158-.21c-.092-.114-.15-.178-.15-.178s.08.033.208.114c.127.09.3.22.485.4.09.1.19.2.28.32.097.12.19.24.276.38.09.14.18.28.26.43.07.16.15.31.22.47.06.17.13.32.17.49l.03.1 4.38-.49-.03-1.92-.84-1.26.07-.36.62-.48.35-.07 1.19.09-.23.6-.53 1.42.4 1.88 4.34-.48c.01-.14.03-.28.05-.42.03-.17.07-.34.1-.5.05-.16.09-.32.15-.47.06-.15.12-.3.18-.43.06-.14.14-.26.21-.37.14-.22.28-.38.39-.49.11-.1.18-.16.18-.16s-.04.08-.1.21l-.104.24c-.047.09-.08.2-.13.31-.04.12-.085.24-.124.38-.045.13-.08.28-.12.42-.04.15-.063.3-.103.46-.02.16-.06.32-.08.48-.01.11-.03.21-.04.31l2.82-.31c-.593-1.52-2.32-4.97-5.87-5.31l-2.64 2.2-2.89-1.523s-4.54 1.15-4.837 6.46l2.86-.32-.01-.02z"/>
  <path fill="#34ADAC" d="M850.33 471.5l-.115-.372-.846-.315-.35.067-.56.55-.13.292.84 1.26.03 1.92.98-.11-.4-1.877"/>
  <path fill="#0C333F" d="M844.64 474.81c-.064-.16-.142-.316-.214-.47-.082-.15-.164-.296-.254-.43-.086-.14-.18-.266-.275-.38-.09-.12-.19-.22-.28-.313-.187-.182-.36-.314-.486-.396-.12-.08-.2-.11-.2-.11s.06.07.15.18l.16.21c.07.08.13.18.2.28.07.11.14.22.21.34.08.12.14.25.22.39.08.13.13.28.21.42.06.15.13.3.19.45.06.16.13.31.17.46 0 .01.01.02.01.02l.42-.05-.02-.09c-.04-.16-.11-.32-.17-.48zm10.446-1.335c.04-.154.06-.312.104-.457.04-.146.074-.29.12-.423.038-.135.085-.258.124-.375.047-.113.082-.223.124-.313l.106-.24c.063-.132.106-.206.106-.206s-.07.06-.177.16c-.105.11-.243.28-.383.49-.065.12-.143.23-.203.37-.066.13-.13.28-.183.43-.058.15-.102.31-.15.48-.033.17-.074.34-.1.51-.013.14-.036.28-.045.42l.43-.05c.01-.1.03-.2.04-.31.02-.16.06-.31.08-.47z"/>
  <path d="M850.33 471.5l.23-.602-1.19-.085m-.35.067l-.62.482-.062.36.13-.292" fill="#86C1BE"/>
  <path fill="#0C333F" d="M846.556 468.688l2.72 2.14-1.397 1.39-1.74-2.947"/>
  <path fill="#0C333F" d="M851.375 468.15l-2.1 2.678 1.738 1.09.9-3.29m1.773 4.947l-.057-.48-2.22.248.05.473v.038l.09.786.09-.01-.09-.733 2.04-.22.08.724h.09l-.09-.81"/>
  <path fill="#8A8387" d="M864.7 466.328l29.454-3.3-.232-2.02-29.455 3.3m.958 8.285l29.455-3.3-.234-2.02-29.455 3.3"/>
  <path fill="#37485C" d="M903.62 456.496l-46.356 4.95-1.362-12.35 46.354-4.948"/>
  <path d="M879.23 457.172c-.36.23-1.195.52-2.313.64-3.172.338-5.02-1.43-5.306-4.002-.34-3.084 1.71-5.038 4.49-5.337 1.08-.114 1.92.014 2.31.164l-.24 1.666c-.44-.13-1.04-.227-1.78-.146-1.65.173-2.82 1.288-2.59 3.3.2 1.808 1.42 2.83 3.27 2.634.63-.06 1.31-.27 1.7-.47l.49 1.56zm3.678-.134l-3.938-8.72 2.275-.246 1.538 3.7c.43 1.043.83 2.042 1.17 3.147l.042-.01c.112-1.11.283-2.21.482-3.28l.742-3.99 2.2-.24-2.1 9.36-2.43.26z" fill="#F7FBFF"/>
  <path fill="#8A8387" d="M882.764 513.76l-3.92.473-.48-3.858 3.92-.473.48 3.858zm-3.51-.046l2.983-.358-.364-2.937-2.982.35.37 2.93z"/>
  <path fill="#C0C0C0" d="M880.58 512.93l-.994-.833.27-.31.66.554 1.683-2.17.33.25"/>
  <path fill="#608E9B" d="M923.067 524.932c-1.212-.316-1.938-1.54-1.616-2.735l.43-1.576c.32-1.19 1.57-1.9 2.78-1.59l1.61.42c1.22.32 1.94 1.54 1.62 2.73l-.42 1.58c-.32 1.2-1.56 1.91-2.77 1.59l-1.6-.42z"/>
  <path fill="#31312F" d="M881.4 510.968l1.733 1.345.456-1.696"/>
  <path fill="#D46255" d="M921.965 521.51l-33.274-8.655c.67.405 1.21 1.123 1.03 1.8-.21.803-1.1 1.253-2.03 1.112l-.01.065 33.49 8.71.82-3.032z"/>
  <path fill="#EB7260" d="M922.795 518.422l-33.486-8.71-.01.017c.92.31 1.5 1.16 1.28 1.98-.19.72-1.13 1.12-1.96 1.1.02.01.04.03.06.04l33.27 8.65.83-3.09z"/>
  <path fill="#E7D7C9" d="M889.32 509.742l.01-.037-5.74.912-.457 1.695 4.533 3.52-.002.01h.014l.006.005v-.003c.94.132 1.823-.32 2.04-1.126.19-.707-.21-1.43-.908-1.828.838.018 1.587-.417 1.784-1.148.22-.824-.352-1.68-1.28-2z"/>
  <path fill="#C8962C" d="M922.77 524.933l1.626-6.064-1.61-.42-1.626 6.06"/>
  <path fill="#EDB624" d="M921.92 524.878c-.126-.033-.205-.163-.172-.29l1.585-5.9c.034-.13.17-.202.294-.17.13.033.205.162.17.29l-1.583 5.9c-.034.128-.165.203-.295.17zm-.793-.176c-.13-.033-.206-.163-.173-.29l1.585-5.9c.03-.127.16-.203.29-.17.13.033.2.164.17.29l-1.59 5.902c-.04.127-.17.2-.3.168z"/>
  <path fill="#FFF" d="M750.977 198.513c-1.526-23.448-20.256-42.178-43.705-43.734v-.1h-6.228v.09c-23.447 1.55-42.18 20.28-43.734 43.73h-.095v6.23h.095c1.556 23.45 20.287 42.18 43.734 43.7v.12h6.228v-.13c23.45-1.53 42.18-20.26 43.705-43.71h.124v-6.22h-.12zm-64.36-33.587c-3.028 3.998-5.563 9.044-7.37 14.787h-9.382c4.07-6.354 9.875-11.517 16.752-14.787zm-20.02 21.053h11c-.854 3.94-1.37 8.16-1.558 12.53H663.6c.337-4.44 1.376-8.62 2.997-12.54zm-2.997 18.76h12.44c.187 4.37.703 8.59 1.557 12.53h-11c-1.62-3.91-2.66-8.1-2.997-12.54zm6.265 18.8h9.35c1.84 5.74 4.343 10.79 7.402 14.78-6.877-3.27-12.68-8.44-16.752-14.79zm31.18 18.36c-6.456-1.71-11.986-8.62-15.343-18.37h15.342v18.37zm0-24.63h-17.12c-.882-3.91-1.438-8.1-1.617-12.54h18.736v12.53zm0-18.76h-18.737c.18-4.44.735-8.62 1.618-12.54h17.118v12.53zm0-18.8H685.7c3.356-9.75 8.887-16.66 15.342-18.37v18.36zm37.405 0h-9.35c-1.837-5.75-4.342-10.79-7.4-14.79 6.875 3.27 12.68 8.43 16.75 14.78zm-31.18-18.37c6.456 1.7 11.986 8.61 15.345 18.36H707.27v-18.36zm0 24.63h17.12c.884 3.91 1.408 8.09 1.62 12.53h-18.74v-12.53zm0 18.76h18.74c-.18 4.43-.736 8.62-1.62 12.53h-17.12v-12.53zm0 37.16v-18.36h15.345c-3.358 9.75-8.888 16.65-15.344 18.36zm14.428-3.58c3.028-4.03 5.564-9.05 7.4-14.79h9.352c-4.07 6.35-9.875 11.52-16.752 14.79zm20.023-21.06h-11c.86-3.94 1.37-8.16 1.56-12.54h12.44c-.33 4.43-1.37 8.62-2.99 12.53zm-9.44-18.76c-.19-4.38-.7-8.59-1.55-12.54h11c1.62 3.91 2.66 8.09 3 12.53h-12.44zm0 0"/>
  <path fill="#00374F" d="M751.878 394.025c0 25.795-20.91 46.705-46.705 46.705s-46.705-20.91-46.705-46.705c0-25.793 20.91-46.703 46.705-46.703s46.705 20.91 46.705 46.703"/>
  <path fill="#FFF6F1" d="M742.03 394.025c0 20.355-16.503 36.856-36.857 36.856s-36.854-16.5-36.854-36.85 16.5-36.85 36.85-36.85 36.85 16.5 36.85 36.86"/>
  <path fill="#00374F" d="M731.756 394.025c0 14.682-11.9 26.582-26.583 26.582-14.682 0-26.583-11.9-26.583-26.582 0-14.68 11.9-26.582 26.583-26.582 14.68 0 26.583 11.903 26.583 26.582"/>
  <path fill="#FFF6F1" d="M723.23 394.025c0 9.974-8.085 18.055-18.057 18.055s-18.055-8.08-18.055-18.055c0-9.97 8.083-18.055 18.055-18.055s18.056 8.085 18.056 18.055"/>
  <path fill="#00374F" d="M713.698 394.025c0 4.71-3.816 8.525-8.524 8.525s-8.525-3.816-8.525-8.525c0-4.708 3.81-8.524 8.52-8.524s8.52 3.82 8.52 8.53"/>
  <path fill="#E89C5D" d="M739.387 344.807c.4-.594.25-1.395-.335-1.786-.583-.39-1.38-.23-1.78.37l-33.584 49.9c-.4.6-.25 1.4.334 1.79s1.382.23 1.78-.36l.003.01 33.582-49.9"/>
  <path fill="#FFEB59" d="M736.722 344.197l-8.692 12.914-1.454-4.59 8.693-12.91 1.45 4.59"/>
  <path fill="#BA7D4A" d="M739.054 343.02l-35.03 52.048c.214.144.457.213.7.213.416 0 .827-.2 1.08-.57l33.584-49.9c.045-.07.085-.14.117-.21.24-.56.064-1.22-.45-1.57"/>
  <path fill="#FFEB59" d="M738.194 345.188l-8.693 12.915 4.81-.38 8.69-12.916"/>
  <path fill="none" d="M1011.4 167.452h-9.69c.827 4.54 3.917 16.15 14.45 23.398-2.756-5.318-4.48-11.67-4.736-18.543-.012-.26-.02-2.424-.025-4.855zm53.586 4.57c-.218 6.98-1.944 13.43-4.738 18.822 10.526-7.248 13.613-18.853 14.442-23.39h-9.688c-.003 2.32-.008 4.355-.016 4.568z"/>
  <path fill="#E2A23A" d="M1078.07 164.59c-.34-.353-.818-.556-1.32-.556h-11.742l.003-3.848h-26.81V232.8h13.57c1.6 0 2.89-1.234 2.89-2.76s-1.29-2.76-2.88-2.76h-4.75c.09-.183.13-.386.13-.597 0-.844-.71-1.53-1.59-1.53h-3.21v-19.31c5.32-1.104 10.11-4.277 13.92-8.91 19.86-8.723 22.25-30.767 22.28-31.035.05-.477-.12-.953-.46-1.307zm-17.822 26.254c2.794-5.39 4.52-11.842 4.738-18.822.008-.213.013-2.248.016-4.57h9.688c-.83 4.54-3.916 16.144-14.442 23.392z"/>
  <path fill="#FFD00F" d="M1011.39 160.186c0 .224 0 1.854.005 3.847h-11.743c-.503 0-.98.202-1.32.556-.338.35-.507.83-.46 1.3.025.27 2.414 22.31 22.27 31.03 3.804 4.63 8.6 7.81 13.92 8.91v19.31h-3.21c-.88 0-1.597.68-1.597 1.53 0 .21.045.41.128.59h-4.752c-1.59 0-2.88 1.23-2.88 2.76s1.3 2.76 2.89 2.76h13.57v-72.61h-26.81zm-9.68 7.265l9.69.01c.005 2.43.012 4.6.023 4.86.258 6.88 1.98 13.23 4.736 18.55-10.54-7.24-13.63-18.86-14.45-23.4z"/>
  <path fill="#416079" d="M1016.414 231.25h43.57v15.9h-43.57z"/>
  <path fill="#2C445D" d="M1014.394 247.15h47.608v5.79h-47.608z"/>
  <path fill="#E2A23A" d="M1051.12 239.2c0 2.57-2.183 4.657-4.874 4.657h-16.094c-2.692 0-4.875-2.086-4.875-4.658 0-2.58 2.183-4.66 4.875-4.66h16.094c2.692 0 4.873 2.09 4.873 4.66z"/>
  <g fill="#FFF">
    <path d="M1033.178 415.433v-56.367h17.892v48.957s-6.284 6.807-17.892 7.41zm23.842-20.34v-47.526h17.89v44.684s-6.283 2.24-17.89 2.85zm-45.784 22.193V374.89H1029v42.396s-8.777 2.148-17.764 0zm-3.59.86V393.51H988.5v17.488s9.063 6.247 19.147 7.148z"/>
    <path d="M1054.667 399.476l34-4.45-14.8 33.947-1.943-14.35s-40.85 39.147-80.72 4c0 0 34.13 19.853 76.297-13.98l-12.83-5.167z"/>
  </g>
</svg>
