<?xml version="1.0" encoding="utf-8"?>
<!-- Generator: Adobe Illustrator 16.0.0, SVG Export Plug-In . SVG Version: 6.00 Build 0)  -->
<!DOCTYPE svg PUBLIC "-//W3C//DTD SVG 1.1//EN" "http://www.w3.org/Graphics/SVG/1.1/DTD/svg11.dtd">
<svg version="1.1" id="Layer_1" xmlns="http://www.w3.org/2000/svg" xmlns:xlink="http://www.w3.org/1999/xlink" x="0px" y="0px"
	 width="25.417px" height="38.18px" viewBox="22.478 0 25.417 38.18" enable-background="new 22.478 0 25.417 38.18"
	 xml:space="preserve">
<g>
	<g>
		<g>
			<path fill="#0102CE" d="M23.861,18.479L35.187,38.18l11.326-19.701h-0.004c0.884-1.732,1.386-3.692,1.386-5.771
				C47.895,5.69,42.206,0,35.187,0c-7.018,0-12.709,5.69-12.709,12.708c0,2.079,0.502,4.038,1.386,5.771H23.861z M35.187,6.937
				c3.188,0,5.772,2.584,5.772,5.771c0,3.155-2.531,5.717-5.673,5.771h-0.197c-3.143-0.054-5.673-2.616-5.673-5.771
				C29.416,9.52,31.999,6.937,35.187,6.937z"/>
		</g>
	</g>
</g>
</svg>
